<?xml version="1.0" encoding="UTF-8" standalone="no"?><svg xmlns="http://www.w3.org/2000/svg" xmlns:xlink="http://www.w3.org/1999/xlink" contentScriptType="application/ecmascript" contentStyleType="text/css" height="1553.75px" preserveAspectRatio="none" style="width:1077px;height:1553px;" version="1.1" viewBox="0 0 1077 1553" width="1077.5px" zoomAndPan="magnify"><defs><filter height="300%" id="fh63jo7u6wfun" width="300%" x="-1" y="-1"><feGaussianBlur result="blurOut" stdDeviation="2.5"/><feColorMatrix in="blurOut" result="blurOut2" type="matrix" values="0 0 0 0 0 0 0 0 0 0 0 0 0 0 0 0 0 0 .4 0"/><feOffset dx="5.0" dy="5.0" in="blurOut2" result="blurOut3"/><feBlend in="SourceGraphic" in2="blurOut3" mode="normal"/></filter></defs><g><!--MD5=[a5e4e304af49c661b8423d9262d71a95]
class 馆藏目录--><rect fill="#FEFECE" filter="url(#fh63jo7u6wfun)" height="60" id="馆藏目录" style="stroke: #A80036; stroke-width: 1.875;" width="100" x="401.875" y="760.625"/><ellipse cx="420.625" cy="780.625" fill="#ADD1B2" rx="13.75" ry="13.75" style="stroke: #A80036; stroke-width: 1.25;"/><path d="M423.125,776.25 Q423.3789,775.625 423.6719,775.3125 Q423.9648,775 424.2969,775 Q424.8828,775 425.2539,775.3516 Q425.625,775.7031 425.625,776.5234 L425.625,778.4766 Q425.625,779.2969 425.2734,779.6484 Q424.9219,780 424.375,780 Q423.8867,780 423.5742,779.7852 Q423.2617,779.5703 423.125,779.0039 Q423.0664,778.6133 422.8516,778.3984 Q422.4609,777.9883 421.7578,777.7539 Q421.0547,777.5 420.3516,777.5 Q419.4727,777.5 418.7305,777.8516 Q418.0078,778.2031 417.4414,778.9844 Q416.875,779.7656 416.875,780.8398 L416.875,781.9922 Q416.875,783.2813 417.9297,784.1406 Q418.9844,785 420.8594,785 Q421.9727,785 422.7539,784.7461 Q423.2031,784.6094 423.7109,784.1602 Q424.043,783.9063 424.2188,783.8281 Q424.3945,783.75 424.6094,783.75 Q425.0195,783.75 425.3125,784.082 Q425.625,784.3945 425.625,784.8438 Q425.625,785.2734 425.1953,785.7813 Q424.5703,786.5234 423.5742,786.9336 Q422.2656,787.5 420.6641,787.5 Q418.7891,787.5 417.2852,786.7578 Q416.0742,786.1719 415.2148,784.9023 Q414.375,783.6328 414.375,782.1289 L414.375,780.7617 Q414.375,779.1992 415.1172,777.832 Q415.8789,776.4648 417.1875,775.7422 Q418.5156,775 420,775 Q420.8984,775 421.6797,775.3125 Q422.4609,775.625 423.125,776.25 Z "/><text fill="#000000" font-family="sans-serif" font-size="15" lengthAdjust="spacingAndGlyphs" textLength="60" x="438.125" y="786.7627">馆藏目录</text><line style="stroke: #A80036; stroke-width: 1.875;" x1="403.125" x2="500.625" y1="800.625" y2="800.625"/><line style="stroke: #A80036; stroke-width: 1.875;" x1="403.125" x2="500.625" y1="810.625" y2="810.625"/><!--MD5=[eb4ae18af706639ece52c57508ffffc9]
class 馆藏资源品种--><rect fill="#FEFECE" filter="url(#fh63jo7u6wfun)" height="198.3594" id="馆藏资源品种" style="stroke: #A80036; stroke-width: 1.875;" width="130" x="139.375" y="691.25"/><ellipse cx="158.125" cy="711.25" fill="#ADD1B2" rx="13.75" ry="13.75" style="stroke: #A80036; stroke-width: 1.25;"/><path d="M160.625,706.875 Q160.8789,706.25 161.1719,705.9375 Q161.4648,705.625 161.7969,705.625 Q162.3828,705.625 162.7539,705.9766 Q163.125,706.3281 163.125,707.1484 L163.125,709.1016 Q163.125,709.9219 162.7734,710.2734 Q162.4219,710.625 161.875,710.625 Q161.3867,710.625 161.0742,710.4102 Q160.7617,710.1953 160.625,709.6289 Q160.5664,709.2383 160.3516,709.0234 Q159.9609,708.6133 159.2578,708.3789 Q158.5547,708.125 157.8516,708.125 Q156.9727,708.125 156.2305,708.4766 Q155.5078,708.8281 154.9414,709.6094 Q154.375,710.3906 154.375,711.4648 L154.375,712.6172 Q154.375,713.9063 155.4297,714.7656 Q156.4844,715.625 158.3594,715.625 Q159.4727,715.625 160.2539,715.3711 Q160.7031,715.2344 161.2109,714.7852 Q161.543,714.5313 161.7188,714.4531 Q161.8945,714.375 162.1094,714.375 Q162.5195,714.375 162.8125,714.707 Q163.125,715.0195 163.125,715.4688 Q163.125,715.8984 162.6953,716.4063 Q162.0703,717.1484 161.0742,717.5586 Q159.7656,718.125 158.1641,718.125 Q156.2891,718.125 154.7852,717.3828 Q153.5742,716.7969 152.7148,715.5273 Q151.875,714.2578 151.875,712.7539 L151.875,711.3867 Q151.875,709.8242 152.6172,708.457 Q153.3789,707.0898 154.6875,706.3672 Q156.0156,705.625 157.5,705.625 Q158.3984,705.625 159.1797,705.9375 Q159.9609,706.25 160.625,706.875 Z "/><text fill="#000000" font-family="sans-serif" font-size="15" lengthAdjust="spacingAndGlyphs" textLength="90" x="175.625" y="717.3877">馆藏资源品种</text><line style="stroke: #A80036; stroke-width: 1.875;" x1="140.625" x2="268.125" y1="731.25" y2="731.25"/><text fill="#000000" font-family="sans-serif" font-size="13.75" lengthAdjust="spacingAndGlyphs" textLength="93.75" x="146.875" y="750.5237">String 资源名称</text><text fill="#000000" font-family="sans-serif" font-size="13.75" lengthAdjust="spacingAndGlyphs" textLength="107.5" x="146.875" y="767.8186">String 国际出版号</text><text fill="#000000" font-family="sans-serif" font-size="13.75" lengthAdjust="spacingAndGlyphs" textLength="57.5" x="146.875" y="785.1135">float 价格</text><text fill="#000000" font-family="sans-serif" font-size="13.75" lengthAdjust="spacingAndGlyphs" textLength="70" x="146.875" y="802.4084">String  简介</text><text fill="#000000" font-family="sans-serif" font-size="13.75" lengthAdjust="spacingAndGlyphs" textLength="93.75" x="146.875" y="819.7034">String 馆藏数量</text><text fill="#000000" font-family="sans-serif" font-size="13.75" lengthAdjust="spacingAndGlyphs" textLength="93.75" x="146.875" y="836.9983">String 可借数量</text><line style="stroke: #A80036; stroke-width: 1.875;" x1="140.625" x2="268.125" y1="845.0195" y2="845.0195"/><text fill="#000000" font-family="sans-serif" font-size="13.75" lengthAdjust="spacingAndGlyphs" textLength="57.5" x="146.875" y="864.2932">void set()</text><text fill="#000000" font-family="sans-serif" font-size="13.75" lengthAdjust="spacingAndGlyphs" textLength="71.25" x="146.875" y="881.5881">Object get()</text><!--MD5=[7dc43d961535afb41efcc3336bfd4348]
class 预定记录--><rect fill="#FEFECE" filter="url(#fh63jo7u6wfun)" height="163.7695" id="预定记录" style="stroke: #A80036; stroke-width: 1.875;" width="108.75" x="755" y="708.75"/><ellipse cx="777.6875" cy="728.75" fill="#ADD1B2" rx="13.75" ry="13.75" style="stroke: #A80036; stroke-width: 1.25;"/><path d="M780.1875,724.375 Q780.4414,723.75 780.7344,723.4375 Q781.0273,723.125 781.3594,723.125 Q781.9453,723.125 782.3164,723.4766 Q782.6875,723.8281 782.6875,724.6484 L782.6875,726.6016 Q782.6875,727.4219 782.3359,727.7734 Q781.9844,728.125 781.4375,728.125 Q780.9492,728.125 780.6367,727.9102 Q780.3242,727.6953 780.1875,727.1289 Q780.1289,726.7383 779.9141,726.5234 Q779.5234,726.1133 778.8203,725.8789 Q778.1172,725.625 777.4141,725.625 Q776.5352,725.625 775.793,725.9766 Q775.0703,726.3281 774.5039,727.1094 Q773.9375,727.8906 773.9375,728.9648 L773.9375,730.1172 Q773.9375,731.4063 774.9922,732.2656 Q776.0469,733.125 777.9219,733.125 Q779.0352,733.125 779.8164,732.8711 Q780.2656,732.7344 780.7734,732.2852 Q781.1055,732.0313 781.2813,731.9531 Q781.457,731.875 781.6719,731.875 Q782.082,731.875 782.375,732.207 Q782.6875,732.5195 782.6875,732.9688 Q782.6875,733.3984 782.2578,733.9063 Q781.6328,734.6484 780.6367,735.0586 Q779.3281,735.625 777.7266,735.625 Q775.8516,735.625 774.3477,734.8828 Q773.1367,734.2969 772.2773,733.0273 Q771.4375,731.7578 771.4375,730.2539 L771.4375,728.8867 Q771.4375,727.3242 772.1797,725.957 Q772.9414,724.5898 774.25,723.8672 Q775.5781,723.125 777.0625,723.125 Q777.9609,723.125 778.7422,723.4375 Q779.5234,723.75 780.1875,724.375 Z "/><text fill="#000000" font-family="sans-serif" font-size="15" lengthAdjust="spacingAndGlyphs" textLength="60" x="796.0625" y="734.8877">预定记录</text><line style="stroke: #A80036; stroke-width: 1.875;" x1="756.25" x2="862.5" y1="748.75" y2="748.75"/><text fill="#000000" font-family="sans-serif" font-size="13.75" lengthAdjust="spacingAndGlyphs" textLength="93.75" x="762.5" y="768.0237">String 预定日期</text><text fill="#000000" font-family="sans-serif" font-size="13.75" lengthAdjust="spacingAndGlyphs" textLength="93.75" x="762.5" y="785.3186">String 预定用户</text><text fill="#000000" font-family="sans-serif" font-size="13.75" lengthAdjust="spacingAndGlyphs" textLength="93.75" x="762.5" y="802.6135">String 预定数量</text><line style="stroke: #A80036; stroke-width: 1.875;" x1="756.25" x2="862.5" y1="810.6348" y2="810.6348"/><text fill="#000000" font-family="sans-serif" font-size="13.75" lengthAdjust="spacingAndGlyphs" textLength="92.5" x="762.5" y="829.9084">创建预定对象()</text><text fill="#000000" font-family="sans-serif" font-size="13.75" lengthAdjust="spacingAndGlyphs" textLength="92.5" x="762.5" y="847.2034">删除预定对象()</text><text fill="#000000" font-family="sans-serif" font-size="13.75" lengthAdjust="spacingAndGlyphs" textLength="92.5" x="762.5" y="864.4983">修改预定对象()</text><!--MD5=[86f1a8b00e001792b8e51050c52a1e89]
class 资源项--><rect fill="#FEFECE" filter="url(#fh63jo7u6wfun)" height="94.5898" id="资源项" style="stroke: #A80036; stroke-width: 1.875;" width="122.5" x="145.625" y="1009.375"/><ellipse cx="181.25" cy="1029.375" fill="#ADD1B2" rx="13.75" ry="13.75" style="stroke: #A80036; stroke-width: 1.25;"/><path d="M183.75,1025 Q184.0039,1024.375 184.2969,1024.0625 Q184.5898,1023.75 184.9219,1023.75 Q185.5078,1023.75 185.8789,1024.1016 Q186.25,1024.4531 186.25,1025.2734 L186.25,1027.2266 Q186.25,1028.0469 185.8984,1028.3984 Q185.5469,1028.75 185,1028.75 Q184.5117,1028.75 184.1992,1028.5352 Q183.8867,1028.3203 183.75,1027.7539 Q183.6914,1027.3633 183.4766,1027.1484 Q183.0859,1026.7383 182.3828,1026.5039 Q181.6797,1026.25 180.9766,1026.25 Q180.0977,1026.25 179.3555,1026.6016 Q178.6328,1026.9531 178.0664,1027.7344 Q177.5,1028.5156 177.5,1029.5898 L177.5,1030.7422 Q177.5,1032.0313 178.5547,1032.8906 Q179.6094,1033.75 181.4844,1033.75 Q182.5977,1033.75 183.3789,1033.4961 Q183.8281,1033.3594 184.3359,1032.9102 Q184.668,1032.6563 184.8438,1032.5781 Q185.0195,1032.5 185.2344,1032.5 Q185.6445,1032.5 185.9375,1032.832 Q186.25,1033.1445 186.25,1033.5938 Q186.25,1034.0234 185.8203,1034.5313 Q185.1953,1035.2734 184.1992,1035.6836 Q182.8906,1036.25 181.2891,1036.25 Q179.4141,1036.25 177.9102,1035.5078 Q176.6992,1034.9219 175.8398,1033.6523 Q175,1032.3828 175,1030.8789 L175,1029.5117 Q175,1027.9492 175.7422,1026.582 Q176.5039,1025.2148 177.8125,1024.4922 Q179.1406,1023.75 180.625,1023.75 Q181.5234,1023.75 182.3047,1024.0625 Q183.0859,1024.375 183.75,1025 Z "/><text fill="#000000" font-family="sans-serif" font-size="15" lengthAdjust="spacingAndGlyphs" textLength="45" x="202.5" y="1035.5127">资源项</text><line style="stroke: #A80036; stroke-width: 1.875;" x1="146.875" x2="266.875" y1="1049.375" y2="1049.375"/><text fill="#000000" font-family="sans-serif" font-size="13.75" lengthAdjust="spacingAndGlyphs" textLength="107.5" x="153.125" y="1068.6487">String 资源流水号</text><text fill="#000000" font-family="sans-serif" font-size="13.75" lengthAdjust="spacingAndGlyphs" textLength="66.25" x="153.125" y="1085.9436">String 状态</text><line style="stroke: #A80036; stroke-width: 1.875;" x1="146.875" x2="266.875" y1="1093.9648" y2="1093.9648"/><!--MD5=[4edab9f8182a308a485bd390608cbb1f]
class 图书品种--><rect fill="#FEFECE" filter="url(#fh63jo7u6wfun)" height="111.8848" id="图书品种" style="stroke: #A80036; stroke-width: 1.875;" width="108.75" x="7.5" y="481.25"/><ellipse cx="30.1875" cy="501.25" fill="#ADD1B2" rx="13.75" ry="13.75" style="stroke: #A80036; stroke-width: 1.25;"/><path d="M32.6875,496.875 Q32.9414,496.25 33.2344,495.9375 Q33.5273,495.625 33.8594,495.625 Q34.4453,495.625 34.8164,495.9766 Q35.1875,496.3281 35.1875,497.1484 L35.1875,499.1016 Q35.1875,499.9219 34.8359,500.2734 Q34.4844,500.625 33.9375,500.625 Q33.4492,500.625 33.1367,500.4102 Q32.8242,500.1953 32.6875,499.6289 Q32.6289,499.2383 32.4141,499.0234 Q32.0234,498.6133 31.3203,498.3789 Q30.6172,498.125 29.9141,498.125 Q29.0352,498.125 28.293,498.4766 Q27.5703,498.8281 27.0039,499.6094 Q26.4375,500.3906 26.4375,501.4648 L26.4375,502.6172 Q26.4375,503.9063 27.4922,504.7656 Q28.5469,505.625 30.4219,505.625 Q31.5352,505.625 32.3164,505.3711 Q32.7656,505.2344 33.2734,504.7852 Q33.6055,504.5313 33.7813,504.4531 Q33.957,504.375 34.1719,504.375 Q34.582,504.375 34.875,504.707 Q35.1875,505.0195 35.1875,505.4688 Q35.1875,505.8984 34.7578,506.4063 Q34.1328,507.1484 33.1367,507.5586 Q31.8281,508.125 30.2266,508.125 Q28.3516,508.125 26.8477,507.3828 Q25.6367,506.7969 24.7773,505.5273 Q23.9375,504.2578 23.9375,502.7539 L23.9375,501.3867 Q23.9375,499.8242 24.6797,498.457 Q25.4414,497.0898 26.75,496.3672 Q28.0781,495.625 29.5625,495.625 Q30.4609,495.625 31.2422,495.9375 Q32.0234,496.25 32.6875,496.875 Z "/><text fill="#000000" font-family="sans-serif" font-size="15" lengthAdjust="spacingAndGlyphs" textLength="60" x="48.5625" y="507.3877">图书品种</text><line style="stroke: #A80036; stroke-width: 1.875;" x1="8.75" x2="115" y1="521.25" y2="521.25"/><text fill="#000000" font-family="sans-serif" font-size="13.75" lengthAdjust="spacingAndGlyphs" textLength="66.25" x="15" y="540.5237">String 作者</text><text fill="#000000" font-family="sans-serif" font-size="13.75" lengthAdjust="spacingAndGlyphs" textLength="80" x="15" y="557.8186">String 出版社</text><text fill="#000000" font-family="sans-serif" font-size="13.75" lengthAdjust="spacingAndGlyphs" textLength="93.75" x="15" y="575.1135">String 出版日期</text><line style="stroke: #A80036; stroke-width: 1.875;" x1="8.75" x2="115" y1="583.1348" y2="583.1348"/><!--MD5=[5d20fbc126ae72a4d49afbf4884fc97b]
class 图书管理员--><rect fill="#FEFECE" filter="url(#fh63jo7u6wfun)" height="94.5898" id="图书管理员" style="stroke: #A80036; stroke-width: 1.875;" width="115" x="394.375" y="10"/><ellipse cx="413.125" cy="30" fill="#ADD1B2" rx="13.75" ry="13.75" style="stroke: #A80036; stroke-width: 1.25;"/><path d="M415.625,25.625 Q415.8789,25 416.1719,24.6875 Q416.4648,24.375 416.7969,24.375 Q417.3828,24.375 417.7539,24.7266 Q418.125,25.0781 418.125,25.8984 L418.125,27.8516 Q418.125,28.6719 417.7734,29.0234 Q417.4219,29.375 416.875,29.375 Q416.3867,29.375 416.0742,29.1602 Q415.7617,28.9453 415.625,28.3789 Q415.5664,27.9883 415.3516,27.7734 Q414.9609,27.3633 414.2578,27.1289 Q413.5547,26.875 412.8516,26.875 Q411.9727,26.875 411.2305,27.2266 Q410.5078,27.5781 409.9414,28.3594 Q409.375,29.1406 409.375,30.2148 L409.375,31.3672 Q409.375,32.6563 410.4297,33.5156 Q411.4844,34.375 413.3594,34.375 Q414.4727,34.375 415.2539,34.1211 Q415.7031,33.9844 416.2109,33.5352 Q416.543,33.2813 416.7188,33.2031 Q416.8945,33.125 417.1094,33.125 Q417.5195,33.125 417.8125,33.457 Q418.125,33.7695 418.125,34.2188 Q418.125,34.6484 417.6953,35.1563 Q417.0703,35.8984 416.0742,36.3086 Q414.7656,36.875 413.1641,36.875 Q411.2891,36.875 409.7852,36.1328 Q408.5742,35.5469 407.7148,34.2773 Q406.875,33.0078 406.875,31.5039 L406.875,30.1367 Q406.875,28.5742 407.6172,27.207 Q408.3789,25.8398 409.6875,25.1172 Q411.0156,24.375 412.5,24.375 Q413.3984,24.375 414.1797,24.6875 Q414.9609,25 415.625,25.625 Z "/><text fill="#000000" font-family="sans-serif" font-size="15" lengthAdjust="spacingAndGlyphs" textLength="75" x="430.625" y="36.1377">图书管理员</text><line style="stroke: #A80036; stroke-width: 1.875;" x1="395.625" x2="508.125" y1="50" y2="50"/><text fill="#000000" font-family="sans-serif" font-size="13.75" lengthAdjust="spacingAndGlyphs" textLength="80" x="401.875" y="69.2737">String 职工号</text><text fill="#000000" font-family="sans-serif" font-size="13.75" lengthAdjust="spacingAndGlyphs" textLength="66.25" x="401.875" y="86.5686">String 姓名</text><line style="stroke: #A80036; stroke-width: 1.875;" x1="395.625" x2="508.125" y1="94.5898" y2="94.5898"/><!--MD5=[6c2d8c364e45ff7c04e969e7daa9c16f]
class 逾期记录--><rect fill="#FEFECE" filter="url(#fh63jo7u6wfun)" height="77.2949" id="逾期记录" style="stroke: #A80036; stroke-width: 1.875;" width="100" x="260.625" y="1463.75"/><ellipse cx="279.375" cy="1483.75" fill="#ADD1B2" rx="13.75" ry="13.75" style="stroke: #A80036; stroke-width: 1.25;"/><path d="M281.875,1479.375 Q282.1289,1478.75 282.4219,1478.4375 Q282.7148,1478.125 283.0469,1478.125 Q283.6328,1478.125 284.0039,1478.4766 Q284.375,1478.8281 284.375,1479.6484 L284.375,1481.6016 Q284.375,1482.4219 284.0234,1482.7734 Q283.6719,1483.125 283.125,1483.125 Q282.6367,1483.125 282.3242,1482.9102 Q282.0117,1482.6953 281.875,1482.1289 Q281.8164,1481.7383 281.6016,1481.5234 Q281.2109,1481.1133 280.5078,1480.8789 Q279.8047,1480.625 279.1016,1480.625 Q278.2227,1480.625 277.4805,1480.9766 Q276.7578,1481.3281 276.1914,1482.1094 Q275.625,1482.8906 275.625,1483.9648 L275.625,1485.1172 Q275.625,1486.4063 276.6797,1487.2656 Q277.7344,1488.125 279.6094,1488.125 Q280.7227,1488.125 281.5039,1487.8711 Q281.9531,1487.7344 282.4609,1487.2852 Q282.793,1487.0313 282.9688,1486.9531 Q283.1445,1486.875 283.3594,1486.875 Q283.7695,1486.875 284.0625,1487.207 Q284.375,1487.5195 284.375,1487.9688 Q284.375,1488.3984 283.9453,1488.9063 Q283.3203,1489.6484 282.3242,1490.0586 Q281.0156,1490.625 279.4141,1490.625 Q277.5391,1490.625 276.0352,1489.8828 Q274.8242,1489.2969 273.9648,1488.0273 Q273.125,1486.7578 273.125,1485.2539 L273.125,1483.8867 Q273.125,1482.3242 273.8672,1480.957 Q274.6289,1479.5898 275.9375,1478.8672 Q277.2656,1478.125 278.75,1478.125 Q279.6484,1478.125 280.4297,1478.4375 Q281.2109,1478.75 281.875,1479.375 Z "/><text fill="#000000" font-family="sans-serif" font-size="15" lengthAdjust="spacingAndGlyphs" textLength="60" x="296.875" y="1489.8877">逾期记录</text><line style="stroke: #A80036; stroke-width: 1.875;" x1="261.875" x2="359.375" y1="1503.75" y2="1503.75"/><text fill="#000000" font-family="sans-serif" font-size="13.75" lengthAdjust="spacingAndGlyphs" textLength="72.5" x="268.125" y="1523.0237">int 逾期天数</text><line style="stroke: #A80036; stroke-width: 1.875;" x1="261.875" x2="359.375" y1="1531.0449" y2="1531.0449"/><!--MD5=[190c82ec8492104134223566c82846a7]
class 借书记录--><rect fill="#FEFECE" filter="url(#fh63jo7u6wfun)" height="94.5898" id="借书记录" style="stroke: #A80036; stroke-width: 1.875;" width="108.75" x="256.25" y="1258.125"/><ellipse cx="278.9375" cy="1278.125" fill="#ADD1B2" rx="13.75" ry="13.75" style="stroke: #A80036; stroke-width: 1.25;"/><path d="M281.4375,1273.75 Q281.6914,1273.125 281.9844,1272.8125 Q282.2773,1272.5 282.6094,1272.5 Q283.1953,1272.5 283.5664,1272.8516 Q283.9375,1273.2031 283.9375,1274.0234 L283.9375,1275.9766 Q283.9375,1276.7969 283.5859,1277.1484 Q283.2344,1277.5 282.6875,1277.5 Q282.1992,1277.5 281.8867,1277.2852 Q281.5742,1277.0703 281.4375,1276.5039 Q281.3789,1276.1133 281.1641,1275.8984 Q280.7734,1275.4883 280.0703,1275.2539 Q279.3672,1275 278.6641,1275 Q277.7852,1275 277.043,1275.3516 Q276.3203,1275.7031 275.7539,1276.4844 Q275.1875,1277.2656 275.1875,1278.3398 L275.1875,1279.4922 Q275.1875,1280.7813 276.2422,1281.6406 Q277.2969,1282.5 279.1719,1282.5 Q280.2852,1282.5 281.0664,1282.2461 Q281.5156,1282.1094 282.0234,1281.6602 Q282.3555,1281.4063 282.5313,1281.3281 Q282.707,1281.25 282.9219,1281.25 Q283.332,1281.25 283.625,1281.582 Q283.9375,1281.8945 283.9375,1282.3438 Q283.9375,1282.7734 283.5078,1283.2813 Q282.8828,1284.0234 281.8867,1284.4336 Q280.5781,1285 278.9766,1285 Q277.1016,1285 275.5977,1284.2578 Q274.3867,1283.6719 273.5273,1282.4023 Q272.6875,1281.1328 272.6875,1279.6289 L272.6875,1278.2617 Q272.6875,1276.6992 273.4297,1275.332 Q274.1914,1273.9648 275.5,1273.2422 Q276.8281,1272.5 278.3125,1272.5 Q279.2109,1272.5 279.9922,1272.8125 Q280.7734,1273.125 281.4375,1273.75 Z "/><text fill="#000000" font-family="sans-serif" font-size="15" lengthAdjust="spacingAndGlyphs" textLength="60" x="297.3125" y="1284.2627">借书记录</text><line style="stroke: #A80036; stroke-width: 1.875;" x1="257.5" x2="363.75" y1="1298.125" y2="1298.125"/><text fill="#000000" font-family="sans-serif" font-size="13.75" lengthAdjust="spacingAndGlyphs" textLength="93.75" x="263.75" y="1317.3987">String 借书时间</text><text fill="#000000" font-family="sans-serif" font-size="13.75" lengthAdjust="spacingAndGlyphs" textLength="93.75" x="263.75" y="1334.6936">String 归还时间</text><line style="stroke: #A80036; stroke-width: 1.875;" x1="257.5" x2="363.75" y1="1342.7148" y2="1342.7148"/><!--MD5=[d51fc90e72950071d26d0893c4db4d47]
class 读者--><rect fill="#FEFECE" filter="url(#fh63jo7u6wfun)" height="181.0645" id="读者" style="stroke: #A80036; stroke-width: 1.875;" width="122.5" x="748.125" y="966.25"/><ellipse cx="790.5" cy="986.25" fill="#ADD1B2" rx="13.75" ry="13.75" style="stroke: #A80036; stroke-width: 1.25;"/><path d="M793,981.875 Q793.2539,981.25 793.5469,980.9375 Q793.8398,980.625 794.1719,980.625 Q794.7578,980.625 795.1289,980.9766 Q795.5,981.3281 795.5,982.1484 L795.5,984.1016 Q795.5,984.9219 795.1484,985.2734 Q794.7969,985.625 794.25,985.625 Q793.7617,985.625 793.4492,985.4102 Q793.1367,985.1953 793,984.6289 Q792.9414,984.2383 792.7266,984.0234 Q792.3359,983.6133 791.6328,983.3789 Q790.9297,983.125 790.2266,983.125 Q789.3477,983.125 788.6055,983.4766 Q787.8828,983.8281 787.3164,984.6094 Q786.75,985.3906 786.75,986.4648 L786.75,987.6172 Q786.75,988.9063 787.8047,989.7656 Q788.8594,990.625 790.7344,990.625 Q791.8477,990.625 792.6289,990.3711 Q793.0781,990.2344 793.5859,989.7852 Q793.918,989.5313 794.0938,989.4531 Q794.2695,989.375 794.4844,989.375 Q794.8945,989.375 795.1875,989.707 Q795.5,990.0195 795.5,990.4688 Q795.5,990.8984 795.0703,991.4063 Q794.4453,992.1484 793.4492,992.5586 Q792.1406,993.125 790.5391,993.125 Q788.6641,993.125 787.1602,992.3828 Q785.9492,991.7969 785.0898,990.5273 Q784.25,989.2578 784.25,987.7539 L784.25,986.3867 Q784.25,984.8242 784.9922,983.457 Q785.7539,982.0898 787.0625,981.3672 Q788.3906,980.625 789.875,980.625 Q790.7734,980.625 791.5547,980.9375 Q792.3359,981.25 793,981.875 Z "/><text fill="#000000" font-family="sans-serif" font-size="15" lengthAdjust="spacingAndGlyphs" textLength="30" x="813.25" y="992.3877">读者</text><line style="stroke: #A80036; stroke-width: 1.875;" x1="749.375" x2="869.375" y1="1006.25" y2="1006.25"/><text fill="#000000" font-family="sans-serif" font-size="13.75" lengthAdjust="spacingAndGlyphs" textLength="66.25" x="755.625" y="1025.5237">String 姓名</text><text fill="#000000" font-family="sans-serif" font-size="13.75" lengthAdjust="spacingAndGlyphs" textLength="93.75" x="755.625" y="1042.8186">String 身份证号</text><text fill="#000000" font-family="sans-serif" font-size="13.75" lengthAdjust="spacingAndGlyphs" textLength="93.75" x="755.625" y="1060.1135">String 借书卡号</text><text fill="#000000" font-family="sans-serif" font-size="13.75" lengthAdjust="spacingAndGlyphs" textLength="93.75" x="755.625" y="1077.4084">String 图书限额</text><text fill="#000000" font-family="sans-serif" font-size="13.75" lengthAdjust="spacingAndGlyphs" textLength="107.5" x="755.625" y="1094.7034">String 已借图书数</text><text fill="#000000" font-family="sans-serif" font-size="13.75" lengthAdjust="spacingAndGlyphs" textLength="93.75" x="755.625" y="1111.9983">String 碟片限额</text><text fill="#000000" font-family="sans-serif" font-size="13.75" lengthAdjust="spacingAndGlyphs" textLength="107.5" x="755.625" y="1129.2932">String 已借碟片数</text><line style="stroke: #A80036; stroke-width: 1.875;" x1="749.375" x2="869.375" y1="1137.3145" y2="1137.3145"/><!--MD5=[3df23b2eee05936b9e2d6972e4c902eb]
class 罚款细则--><rect fill="#FEFECE" filter="url(#fh63jo7u6wfun)" height="60" id="罚款细则" style="stroke: #A80036; stroke-width: 1.875;" width="100" x="439.375" y="1472.5"/><ellipse cx="458.125" cy="1492.5" fill="#ADD1B2" rx="13.75" ry="13.75" style="stroke: #A80036; stroke-width: 1.25;"/><path d="M460.625,1488.125 Q460.8789,1487.5 461.1719,1487.1875 Q461.4648,1486.875 461.7969,1486.875 Q462.3828,1486.875 462.7539,1487.2266 Q463.125,1487.5781 463.125,1488.3984 L463.125,1490.3516 Q463.125,1491.1719 462.7734,1491.5234 Q462.4219,1491.875 461.875,1491.875 Q461.3867,1491.875 461.0742,1491.6602 Q460.7617,1491.4453 460.625,1490.8789 Q460.5664,1490.4883 460.3516,1490.2734 Q459.9609,1489.8633 459.2578,1489.6289 Q458.5547,1489.375 457.8516,1489.375 Q456.9727,1489.375 456.2305,1489.7266 Q455.5078,1490.0781 454.9414,1490.8594 Q454.375,1491.6406 454.375,1492.7148 L454.375,1493.8672 Q454.375,1495.1563 455.4297,1496.0156 Q456.4844,1496.875 458.3594,1496.875 Q459.4727,1496.875 460.2539,1496.6211 Q460.7031,1496.4844 461.2109,1496.0352 Q461.543,1495.7813 461.7188,1495.7031 Q461.8945,1495.625 462.1094,1495.625 Q462.5195,1495.625 462.8125,1495.957 Q463.125,1496.2695 463.125,1496.7188 Q463.125,1497.1484 462.6953,1497.6563 Q462.0703,1498.3984 461.0742,1498.8086 Q459.7656,1499.375 458.1641,1499.375 Q456.2891,1499.375 454.7852,1498.6328 Q453.5742,1498.0469 452.7148,1496.7773 Q451.875,1495.5078 451.875,1494.0039 L451.875,1492.6367 Q451.875,1491.0742 452.6172,1489.707 Q453.3789,1488.3398 454.6875,1487.6172 Q456.0156,1486.875 457.5,1486.875 Q458.3984,1486.875 459.1797,1487.1875 Q459.9609,1487.5 460.625,1488.125 Z "/><text fill="#000000" font-family="sans-serif" font-size="15" lengthAdjust="spacingAndGlyphs" textLength="60" x="475.625" y="1498.6377">罚款细则</text><line style="stroke: #A80036; stroke-width: 1.875;" x1="440.625" x2="538.125" y1="1512.5" y2="1512.5"/><line style="stroke: #A80036; stroke-width: 1.875;" x1="440.625" x2="538.125" y1="1522.5" y2="1522.5"/><!--MD5=[a41adaf9b4c569e799fc5db1dd735422]
class 登录窗口--><rect fill="#FEFECE" filter="url(#fh63jo7u6wfun)" height="163.7695" id="登录窗口" style="stroke: #A80036; stroke-width: 1.875;" width="108.75" x="538.75" y="1223.75"/><ellipse cx="561.4375" cy="1243.75" fill="#ADD1B2" rx="13.75" ry="13.75" style="stroke: #A80036; stroke-width: 1.25;"/><path d="M563.9375,1239.375 Q564.1914,1238.75 564.4844,1238.4375 Q564.7773,1238.125 565.1094,1238.125 Q565.6953,1238.125 566.0664,1238.4766 Q566.4375,1238.8281 566.4375,1239.6484 L566.4375,1241.6016 Q566.4375,1242.4219 566.0859,1242.7734 Q565.7344,1243.125 565.1875,1243.125 Q564.6992,1243.125 564.3867,1242.9102 Q564.0742,1242.6953 563.9375,1242.1289 Q563.8789,1241.7383 563.6641,1241.5234 Q563.2734,1241.1133 562.5703,1240.8789 Q561.8672,1240.625 561.1641,1240.625 Q560.2852,1240.625 559.543,1240.9766 Q558.8203,1241.3281 558.2539,1242.1094 Q557.6875,1242.8906 557.6875,1243.9648 L557.6875,1245.1172 Q557.6875,1246.4063 558.7422,1247.2656 Q559.7969,1248.125 561.6719,1248.125 Q562.7852,1248.125 563.5664,1247.8711 Q564.0156,1247.7344 564.5234,1247.2852 Q564.8555,1247.0313 565.0313,1246.9531 Q565.207,1246.875 565.4219,1246.875 Q565.832,1246.875 566.125,1247.207 Q566.4375,1247.5195 566.4375,1247.9688 Q566.4375,1248.3984 566.0078,1248.9063 Q565.3828,1249.6484 564.3867,1250.0586 Q563.0781,1250.625 561.4766,1250.625 Q559.6016,1250.625 558.0977,1249.8828 Q556.8867,1249.2969 556.0273,1248.0273 Q555.1875,1246.7578 555.1875,1245.2539 L555.1875,1243.8867 Q555.1875,1242.3242 555.9297,1240.957 Q556.6914,1239.5898 558,1238.8672 Q559.3281,1238.125 560.8125,1238.125 Q561.7109,1238.125 562.4922,1238.4375 Q563.2734,1238.75 563.9375,1239.375 Z "/><text fill="#000000" font-family="sans-serif" font-size="15" lengthAdjust="spacingAndGlyphs" textLength="60" x="579.8125" y="1249.8877">登录窗口</text><line style="stroke: #A80036; stroke-width: 1.875;" x1="540" x2="646.25" y1="1263.75" y2="1263.75"/><text fill="#000000" font-family="sans-serif" font-size="13.75" lengthAdjust="spacingAndGlyphs" textLength="93.75" x="546.25" y="1283.0237">String 窗口名称</text><text fill="#000000" font-family="sans-serif" font-size="13.75" lengthAdjust="spacingAndGlyphs" textLength="80" x="546.25" y="1300.3186">String 用户名</text><text fill="#000000" font-family="sans-serif" font-size="13.75" lengthAdjust="spacingAndGlyphs" textLength="66.25" x="546.25" y="1317.6135">String 密码</text><line style="stroke: #A80036; stroke-width: 1.875;" x1="540" x2="646.25" y1="1325.6348" y2="1325.6348"/><text fill="#000000" font-family="sans-serif" font-size="13.75" lengthAdjust="spacingAndGlyphs" textLength="92.5" x="546.25" y="1344.9084">创建登录对象()</text><text fill="#000000" font-family="sans-serif" font-size="13.75" lengthAdjust="spacingAndGlyphs" textLength="37.5" x="546.25" y="1362.2034">登录()</text><text fill="#000000" font-family="sans-serif" font-size="13.75" lengthAdjust="spacingAndGlyphs" textLength="37.5" x="546.25" y="1379.4983">取消()</text><!--MD5=[bb2a279bdbbc9f097c47cda4ab1ba43d]
class 查询图书记录--><rect fill="#FEFECE" filter="url(#fh63jo7u6wfun)" height="146.4746" id="查询图书记录" style="stroke: #A80036; stroke-width: 1.875;" width="150" x="914.375" y="983.75"/><ellipse cx="942.125" cy="1003.75" fill="#ADD1B2" rx="13.75" ry="13.75" style="stroke: #A80036; stroke-width: 1.25;"/><path d="M944.625,999.375 Q944.8789,998.75 945.1719,998.4375 Q945.4648,998.125 945.7969,998.125 Q946.3828,998.125 946.7539,998.4766 Q947.125,998.8281 947.125,999.6484 L947.125,1001.6016 Q947.125,1002.4219 946.7734,1002.7734 Q946.4219,1003.125 945.875,1003.125 Q945.3867,1003.125 945.0742,1002.9102 Q944.7617,1002.6953 944.625,1002.1289 Q944.5664,1001.7383 944.3516,1001.5234 Q943.9609,1001.1133 943.2578,1000.8789 Q942.5547,1000.625 941.8516,1000.625 Q940.9727,1000.625 940.2305,1000.9766 Q939.5078,1001.3281 938.9414,1002.1094 Q938.375,1002.8906 938.375,1003.9648 L938.375,1005.1172 Q938.375,1006.4063 939.4297,1007.2656 Q940.4844,1008.125 942.3594,1008.125 Q943.4727,1008.125 944.2539,1007.8711 Q944.7031,1007.7344 945.2109,1007.2852 Q945.543,1007.0313 945.7188,1006.9531 Q945.8945,1006.875 946.1094,1006.875 Q946.5195,1006.875 946.8125,1007.207 Q947.125,1007.5195 947.125,1007.9688 Q947.125,1008.3984 946.6953,1008.9063 Q946.0703,1009.6484 945.0742,1010.0586 Q943.7656,1010.625 942.1641,1010.625 Q940.2891,1010.625 938.7852,1009.8828 Q937.5742,1009.2969 936.7148,1008.0273 Q935.875,1006.7578 935.875,1005.2539 L935.875,1003.8867 Q935.875,1002.3242 936.6172,1000.957 Q937.3789,999.5898 938.6875,998.8672 Q940.0156,998.125 941.5,998.125 Q942.3984,998.125 943.1797,998.4375 Q943.9609,998.75 944.625,999.375 Z "/><text fill="#000000" font-family="sans-serif" font-size="15" lengthAdjust="spacingAndGlyphs" textLength="90" x="961.625" y="1009.8877">查询图书记录</text><line style="stroke: #A80036; stroke-width: 1.875;" x1="915.625" x2="1063.125" y1="1023.75" y2="1023.75"/><text fill="#000000" font-family="sans-serif" font-size="13.75" lengthAdjust="spacingAndGlyphs" textLength="135" x="921.875" y="1043.0237">String 查询的用户名称</text><text fill="#000000" font-family="sans-serif" font-size="13.75" lengthAdjust="spacingAndGlyphs" textLength="93.75" x="921.875" y="1060.3186">String 查询时间</text><text fill="#000000" font-family="sans-serif" font-size="13.75" lengthAdjust="spacingAndGlyphs" textLength="93.75" x="921.875" y="1077.6135">String 图书编号</text><line style="stroke: #A80036; stroke-width: 1.875;" x1="915.625" x2="1063.125" y1="1085.6348" y2="1085.6348"/><text fill="#000000" font-family="sans-serif" font-size="13.75" lengthAdjust="spacingAndGlyphs" textLength="92.5" x="921.875" y="1104.9084">获取图书对象()</text><text fill="#000000" font-family="sans-serif" font-size="13.75" lengthAdjust="spacingAndGlyphs" textLength="92.5" x="921.875" y="1122.2034">显示图书信息()</text><!--MD5=[940915a805ba8e0639728dd953e6206b]
class 碟片品种--><rect fill="#FEFECE" filter="url(#fh63jo7u6wfun)" height="111.8848" id="碟片品种" style="stroke: #A80036; stroke-width: 1.875;" width="108.75" x="160" y="481.25"/><ellipse cx="182.6875" cy="501.25" fill="#ADD1B2" rx="13.75" ry="13.75" style="stroke: #A80036; stroke-width: 1.25;"/><path d="M185.1875,496.875 Q185.4414,496.25 185.7344,495.9375 Q186.0273,495.625 186.3594,495.625 Q186.9453,495.625 187.3164,495.9766 Q187.6875,496.3281 187.6875,497.1484 L187.6875,499.1016 Q187.6875,499.9219 187.3359,500.2734 Q186.9844,500.625 186.4375,500.625 Q185.9492,500.625 185.6367,500.4102 Q185.3242,500.1953 185.1875,499.6289 Q185.1289,499.2383 184.9141,499.0234 Q184.5234,498.6133 183.8203,498.3789 Q183.1172,498.125 182.4141,498.125 Q181.5352,498.125 180.793,498.4766 Q180.0703,498.8281 179.5039,499.6094 Q178.9375,500.3906 178.9375,501.4648 L178.9375,502.6172 Q178.9375,503.9063 179.9922,504.7656 Q181.0469,505.625 182.9219,505.625 Q184.0352,505.625 184.8164,505.3711 Q185.2656,505.2344 185.7734,504.7852 Q186.1055,504.5313 186.2813,504.4531 Q186.457,504.375 186.6719,504.375 Q187.082,504.375 187.375,504.707 Q187.6875,505.0195 187.6875,505.4688 Q187.6875,505.8984 187.2578,506.4063 Q186.6328,507.1484 185.6367,507.5586 Q184.3281,508.125 182.7266,508.125 Q180.8516,508.125 179.3477,507.3828 Q178.1367,506.7969 177.2773,505.5273 Q176.4375,504.2578 176.4375,502.7539 L176.4375,501.3867 Q176.4375,499.8242 177.1797,498.457 Q177.9414,497.0898 179.25,496.3672 Q180.5781,495.625 182.0625,495.625 Q182.9609,495.625 183.7422,495.9375 Q184.5234,496.25 185.1875,496.875 Z "/><text fill="#000000" font-family="sans-serif" font-size="15" lengthAdjust="spacingAndGlyphs" textLength="60" x="201.0625" y="507.3877">碟片品种</text><line style="stroke: #A80036; stroke-width: 1.875;" x1="161.25" x2="267.5" y1="521.25" y2="521.25"/><text fill="#000000" font-family="sans-serif" font-size="13.75" lengthAdjust="spacingAndGlyphs" textLength="93.75" x="167.5" y="540.5237">String 碟片品种</text><text fill="#000000" font-family="sans-serif" font-size="13.75" lengthAdjust="spacingAndGlyphs" textLength="80" x="167.5" y="557.8186">String 碟片数</text><text fill="#000000" font-family="sans-serif" font-size="13.75" lengthAdjust="spacingAndGlyphs" textLength="93.75" x="167.5" y="575.1135">String 制作公司</text><line style="stroke: #A80036; stroke-width: 1.875;" x1="161.25" x2="267.5" y1="583.1348" y2="583.1348"/><!--MD5=[83fbd8096128e96eacaaaee3ccab5780]
class 维护书目信息--><rect fill="#FEFECE" filter="url(#fh63jo7u6wfun)" height="111.8848" id="维护书目信息" style="stroke: #A80036; stroke-width: 1.875;" width="150" x="86.875" y="181.25"/><ellipse cx="114.625" cy="201.25" fill="#ADD1B2" rx="13.75" ry="13.75" style="stroke: #A80036; stroke-width: 1.25;"/><path d="M117.125,196.875 Q117.3789,196.25 117.6719,195.9375 Q117.9648,195.625 118.2969,195.625 Q118.8828,195.625 119.2539,195.9766 Q119.625,196.3281 119.625,197.1484 L119.625,199.1016 Q119.625,199.9219 119.2734,200.2734 Q118.9219,200.625 118.375,200.625 Q117.8867,200.625 117.5742,200.4102 Q117.2617,200.1953 117.125,199.6289 Q117.0664,199.2383 116.8516,199.0234 Q116.4609,198.6133 115.7578,198.3789 Q115.0547,198.125 114.3516,198.125 Q113.4727,198.125 112.7305,198.4766 Q112.0078,198.8281 111.4414,199.6094 Q110.875,200.3906 110.875,201.4648 L110.875,202.6172 Q110.875,203.9063 111.9297,204.7656 Q112.9844,205.625 114.8594,205.625 Q115.9727,205.625 116.7539,205.3711 Q117.2031,205.2344 117.7109,204.7852 Q118.043,204.5313 118.2188,204.4531 Q118.3945,204.375 118.6094,204.375 Q119.0195,204.375 119.3125,204.707 Q119.625,205.0195 119.625,205.4688 Q119.625,205.8984 119.1953,206.4063 Q118.5703,207.1484 117.5742,207.5586 Q116.2656,208.125 114.6641,208.125 Q112.7891,208.125 111.2852,207.3828 Q110.0742,206.7969 109.2148,205.5273 Q108.375,204.2578 108.375,202.7539 L108.375,201.3867 Q108.375,199.8242 109.1172,198.457 Q109.8789,197.0898 111.1875,196.3672 Q112.5156,195.625 114,195.625 Q114.8984,195.625 115.6797,195.9375 Q116.4609,196.25 117.125,196.875 Z "/><text fill="#000000" font-family="sans-serif" font-size="15" lengthAdjust="spacingAndGlyphs" textLength="90" x="134.125" y="207.3877">维护书目信息</text><line style="stroke: #A80036; stroke-width: 1.875;" x1="88.125" x2="235.625" y1="221.25" y2="221.25"/><text fill="#000000" font-family="sans-serif" font-size="13.75" lengthAdjust="spacingAndGlyphs" textLength="135" x="94.375" y="240.5237">String 维护人员职工号</text><text fill="#000000" font-family="sans-serif" font-size="13.75" lengthAdjust="spacingAndGlyphs" textLength="93.75" x="94.375" y="257.8186">String 维护日期</text><text fill="#000000" font-family="sans-serif" font-size="13.75" lengthAdjust="spacingAndGlyphs" textLength="93.75" x="94.375" y="275.1135">String 具体内容</text><line style="stroke: #A80036; stroke-width: 1.875;" x1="88.125" x2="235.625" y1="283.1348" y2="283.1348"/><!--MD5=[c1689d20f67108824b7ca9dcc9aef384]
class 维护读者信息--><rect fill="#FEFECE" filter="url(#fh63jo7u6wfun)" height="111.8848" id="维护读者信息" style="stroke: #A80036; stroke-width: 1.875;" width="150" x="604.375" y="331.25"/><ellipse cx="632.125" cy="351.25" fill="#ADD1B2" rx="13.75" ry="13.75" style="stroke: #A80036; stroke-width: 1.25;"/><path d="M634.625,346.875 Q634.8789,346.25 635.1719,345.9375 Q635.4648,345.625 635.7969,345.625 Q636.3828,345.625 636.7539,345.9766 Q637.125,346.3281 637.125,347.1484 L637.125,349.1016 Q637.125,349.9219 636.7734,350.2734 Q636.4219,350.625 635.875,350.625 Q635.3867,350.625 635.0742,350.4102 Q634.7617,350.1953 634.625,349.6289 Q634.5664,349.2383 634.3516,349.0234 Q633.9609,348.6133 633.2578,348.3789 Q632.5547,348.125 631.8516,348.125 Q630.9727,348.125 630.2305,348.4766 Q629.5078,348.8281 628.9414,349.6094 Q628.375,350.3906 628.375,351.4648 L628.375,352.6172 Q628.375,353.9063 629.4297,354.7656 Q630.4844,355.625 632.3594,355.625 Q633.4727,355.625 634.2539,355.3711 Q634.7031,355.2344 635.2109,354.7852 Q635.543,354.5313 635.7188,354.4531 Q635.8945,354.375 636.1094,354.375 Q636.5195,354.375 636.8125,354.707 Q637.125,355.0195 637.125,355.4688 Q637.125,355.8984 636.6953,356.4063 Q636.0703,357.1484 635.0742,357.5586 Q633.7656,358.125 632.1641,358.125 Q630.2891,358.125 628.7852,357.3828 Q627.5742,356.7969 626.7148,355.5273 Q625.875,354.2578 625.875,352.7539 L625.875,351.3867 Q625.875,349.8242 626.6172,348.457 Q627.3789,347.0898 628.6875,346.3672 Q630.0156,345.625 631.5,345.625 Q632.3984,345.625 633.1797,345.9375 Q633.9609,346.25 634.625,346.875 Z "/><text fill="#000000" font-family="sans-serif" font-size="15" lengthAdjust="spacingAndGlyphs" textLength="90" x="651.625" y="357.3877">维护读者信息</text><line style="stroke: #A80036; stroke-width: 1.875;" x1="605.625" x2="753.125" y1="371.25" y2="371.25"/><text fill="#000000" font-family="sans-serif" font-size="13.75" lengthAdjust="spacingAndGlyphs" textLength="135" x="611.875" y="390.5237">String 维护人员职工号</text><text fill="#000000" font-family="sans-serif" font-size="13.75" lengthAdjust="spacingAndGlyphs" textLength="93.75" x="611.875" y="407.8186">String 维护日期</text><text fill="#000000" font-family="sans-serif" font-size="13.75" lengthAdjust="spacingAndGlyphs" textLength="93.75" x="611.875" y="425.1135">String 具体内容</text><line style="stroke: #A80036; stroke-width: 1.875;" x1="605.625" x2="753.125" y1="433.1348" y2="433.1348"/><!--MD5=[c4c649567d6d9fad9edb50706b5dbbaa]
class 借书--><rect fill="#FEFECE" filter="url(#fh63jo7u6wfun)" height="60" id="借书" style="stroke: #A80036; stroke-width: 1.875;" width="70" x="634.375" y="1026.875"/><ellipse cx="653.125" cy="1046.875" fill="#ADD1B2" rx="13.75" ry="13.75" style="stroke: #A80036; stroke-width: 1.25;"/><path d="M655.625,1042.5 Q655.8789,1041.875 656.1719,1041.5625 Q656.4648,1041.25 656.7969,1041.25 Q657.3828,1041.25 657.7539,1041.6016 Q658.125,1041.9531 658.125,1042.7734 L658.125,1044.7266 Q658.125,1045.5469 657.7734,1045.8984 Q657.4219,1046.25 656.875,1046.25 Q656.3867,1046.25 656.0742,1046.0352 Q655.7617,1045.8203 655.625,1045.2539 Q655.5664,1044.8633 655.3516,1044.6484 Q654.9609,1044.2383 654.2578,1044.0039 Q653.5547,1043.75 652.8516,1043.75 Q651.9727,1043.75 651.2305,1044.1016 Q650.5078,1044.4531 649.9414,1045.2344 Q649.375,1046.0156 649.375,1047.0898 L649.375,1048.2422 Q649.375,1049.5313 650.4297,1050.3906 Q651.4844,1051.25 653.3594,1051.25 Q654.4727,1051.25 655.2539,1050.9961 Q655.7031,1050.8594 656.2109,1050.4102 Q656.543,1050.1563 656.7188,1050.0781 Q656.8945,1050 657.1094,1050 Q657.5195,1050 657.8125,1050.332 Q658.125,1050.6445 658.125,1051.0938 Q658.125,1051.5234 657.6953,1052.0313 Q657.0703,1052.7734 656.0742,1053.1836 Q654.7656,1053.75 653.1641,1053.75 Q651.2891,1053.75 649.7852,1053.0078 Q648.5742,1052.4219 647.7148,1051.1523 Q646.875,1049.8828 646.875,1048.3789 L646.875,1047.0117 Q646.875,1045.4492 647.6172,1044.082 Q648.3789,1042.7148 649.6875,1041.9922 Q651.0156,1041.25 652.5,1041.25 Q653.3984,1041.25 654.1797,1041.5625 Q654.9609,1041.875 655.625,1042.5 Z "/><text fill="#000000" font-family="sans-serif" font-size="15" lengthAdjust="spacingAndGlyphs" textLength="30" x="670.625" y="1053.0127">借书</text><line style="stroke: #A80036; stroke-width: 1.875;" x1="635.625" x2="703.125" y1="1066.875" y2="1066.875"/><line style="stroke: #A80036; stroke-width: 1.875;" x1="635.625" x2="703.125" y1="1076.875" y2="1076.875"/><!--MD5=[1d4fc89de48e3b9b610d8441f49c85e7]
link 馆藏目录 to 馆藏资源品种--><path d="M401.6875,790.625 C357.67,790.625 313.6513,790.625 269.6337,790.625 " fill="none" id="馆藏目录-馆藏资源品种" style="stroke: #A80036; stroke-width: 1.25;"/><text fill="#000000" font-family="sans-serif" font-size="16.25" lengthAdjust="spacingAndGlyphs" textLength="8.75" x="383.2186" y="785.7518">1</text><text fill="#000000" font-family="sans-serif" font-size="16.25" lengthAdjust="spacingAndGlyphs" textLength="25" x="279.5966" y="786.2658">1..*</text><!--MD5=[cd88ad894413a6381ac2a92ee403c3a1]
reverse link 馆藏资源品种 to 资源项--><path d="M205.4625,906.5713 C205.8063,942.8088 206.1663,980.8063 206.4363,1009.3675 " fill="none" id="馆藏资源品种&lt;-资源项" style="stroke: #A80036; stroke-width: 1.25;"/><polygon fill="#A80036" points="205.3063,890.0863,200.3773,897.6332,205.448,905.0856,210.3769,897.5387,205.3063,890.0863" style="stroke: #A80036; stroke-width: 1.25;"/><!--MD5=[ec599fd1c098d531eb43180b75bb5350]
link 资源项 to 借书记录--><path d="M226.39,1104.4425 C244.88,1148.3288 272.5025,1213.8913 291.0213,1257.8475 " fill="none" id="资源项-借书记录" style="stroke: #A80036; stroke-width: 1.25;"/><text fill="#000000" font-family="sans-serif" font-size="16.25" lengthAdjust="spacingAndGlyphs" textLength="8.75" x="220.1476" y="1130.9164">1</text><text fill="#000000" font-family="sans-serif" font-size="16.25" lengthAdjust="spacingAndGlyphs" textLength="27.5" x="257.5801" y="1244.5004">0..1</text><!--MD5=[352ab507fe7a5c66023d5c3c14565afd]
link 图书品种 to 馆藏资源品种--><path d="M93.1472,593.7513 C105.8205,616.04 120.9888,642.7175 135.9875,669.0975 " fill="none" id="图书品种-&gt;馆藏资源品种" style="stroke: #A80036; stroke-width: 1.25;"/><polygon fill="none" points="143.7375,665.025,148.4887,691.0825,128.5249,673.675,143.7375,665.025" style="stroke: #A80036; stroke-width: 1.25;"/><!--MD5=[4a77f1313f06899696b5151fbfea8ab8]
link 碟片品种 to 馆藏资源品种--><path d="M212.18,593.7513 C211.3263,615.1488 210.3113,640.59 209.3,665.93 " fill="none" id="碟片品种-&gt;馆藏资源品种" style="stroke: #A80036; stroke-width: 1.25;"/><polygon fill="none" points="218.0363,666.4513,208.2975,691.0825,200.5513,665.7538,218.0363,666.4513" style="stroke: #A80036; stroke-width: 1.25;"/><!--MD5=[f851ef7f0f308264830116fef71f87c8]
link 图书管理员 to 借书记录--><path d="M400.2087,105.075 C369.1613,138.15 335.625,185.6 335.625,236.25 C335.625,236.25 335.625,236.25 335.625,1058.125 C335.625,1127.9538 325.5513,1208.3538 318.1938,1257.7688 " fill="none" id="图书管理员-借书记录" style="stroke: #A80036; stroke-width: 1.25;"/><text fill="#000000" font-family="sans-serif" font-size="16.25" lengthAdjust="spacingAndGlyphs" textLength="32.5" x="336.875" y="649.3689">登记</text><text fill="#000000" font-family="sans-serif" font-size="16.25" lengthAdjust="spacingAndGlyphs" textLength="8.75" x="382.1769" y="131.5501">1</text><text fill="#000000" font-family="sans-serif" font-size="16.25" lengthAdjust="spacingAndGlyphs" textLength="6.25" x="312.7353" y="1244.4077">*</text><!--MD5=[79d34d260a14e500f66093d33768d1b6]
link 借书记录 to 逾期记录--><path d="M310.625,1353.4325 C310.625,1387.1263 310.625,1432.0844 310.625,1463.5385 " fill="none" id="借书记录-逾期记录" style="stroke: #A80036; stroke-width: 1.25;"/><text fill="#000000" font-family="sans-serif" font-size="16.25" lengthAdjust="spacingAndGlyphs" textLength="8.75" x="301.1777" y="1379.5822">1</text><text fill="#000000" font-family="sans-serif" font-size="16.25" lengthAdjust="spacingAndGlyphs" textLength="27.5" x="280.2891" y="1450.3756">0..1</text><!--MD5=[05ad2cbada50b329a159a9bd04472f4d]
link 逾期记录 to 罚款细则--><path d="M360.8925,1502.5 C385.2625,1502.5 414.4638,1502.5 438.865,1502.5 " fill="none" id="逾期记录-罚款细则" style="stroke: #A80036; stroke-width: 1.25;"/><text fill="#000000" font-family="sans-serif" font-size="16.25" lengthAdjust="spacingAndGlyphs" textLength="32.5" x="383.75" y="1494.3689">使用</text><text fill="#000000" font-family="sans-serif" font-size="16.25" lengthAdjust="spacingAndGlyphs" textLength="6.25" x="370.7367" y="1497.5846">*</text><text fill="#000000" font-family="sans-serif" font-size="16.25" lengthAdjust="spacingAndGlyphs" textLength="27.5" x="401.9268" y="1520.8699">0..1</text><!--MD5=[976b5508305b665cdf5bfe46cf1bce13]
link 借书 to 读者--><path d="M704.375,1056.875 C718.8675,1056.875 733.36,1056.875 747.8512,1056.875 " fill="none" id="借书-读者" style="stroke: #A80036; stroke-width: 1.25;"/><!--MD5=[630fac68501241fcec8613994af81133]
link 预定记录 to 读者--><path d="M809.375,872.8013 C809.375,902.3288 809.375,935.885 809.375,966.1163 " fill="none" id="预定记录-读者" style="stroke: #A80036; stroke-width: 1.25;"/><text fill="#000000" font-family="sans-serif" font-size="16.25" lengthAdjust="spacingAndGlyphs" textLength="6.25" x="802.8027" y="899.1975">*</text><text fill="#000000" font-family="sans-serif" font-size="16.25" lengthAdjust="spacingAndGlyphs" textLength="8.75" x="800.1738" y="952.6266">1</text><!--MD5=[a1f9ea5d33cc9682f68aa3e9c0901f6c]
link 预定记录 to 查询图书记录--><path d="M863.87,871.725 C886.9513,905.545 913.7425,944.8038 936.6312,978.3413 " fill="none" id="预定记录-&gt;查询图书记录" style="stroke: #A80036; stroke-width: 1.25; stroke-dasharray: 7.0,7.0;"/><polygon fill="#A80036" points="940.27,983.6725,938.0583,971.5617,936.7469,978.5101,929.7985,977.1987,940.27,983.6725" style="stroke: #A80036; stroke-width: 1.25;"/><!--MD5=[cae7e44f6ee9d5deafc88a77a6ca4f44]
link 馆藏资源品种 to 预定记录--><path d="M269.4863,724.5663 C305.11,693.1737 351.96,658.9713 401.25,642.5 C525.075,601.12 577.8213,584.9338 695,642.5 C724.1612,656.8263 747.9925,682.5613 766.2088,708.6075 " fill="none" id="馆藏资源品种-预定记录" style="stroke: #A80036; stroke-width: 1.25;"/><text fill="#000000" font-family="sans-serif" font-size="16.25" lengthAdjust="spacingAndGlyphs" textLength="8.75" x="279.2578" y="710.7977">1</text><text fill="#000000" font-family="sans-serif" font-size="16.25" lengthAdjust="spacingAndGlyphs" textLength="6.25" x="754.8956" y="695.4349">*</text><!--MD5=[d89be9e351686793bf5ad0da7bea92e9]
link 读者 to 查询图书记录--><path d="M870.8988,1056.875 C885.245,1056.875 899.5925,1056.875 913.9387,1056.875 " fill="none" id="读者-查询图书记录" style="stroke: #A80036; stroke-width: 1.25;"/><text fill="#000000" font-family="sans-serif" font-size="16.25" lengthAdjust="spacingAndGlyphs" textLength="8.75" x="880.5776" y="1052.321">1</text><text fill="#000000" font-family="sans-serif" font-size="16.25" lengthAdjust="spacingAndGlyphs" textLength="6.25" x="898.1141" y="1052.5382">*</text><!--MD5=[a0aee089f7b51e5ce30780954ce994f4]
link 读者 to 登录窗口--><path d="M747.985,1128.0313 C716.3925,1164.0063 678.21,1207.4863 647.6637,1242.27 " fill="none" id="读者-登录窗口" style="stroke: #A80036; stroke-width: 1.25;"/><text fill="#000000" font-family="sans-serif" font-size="16.25" lengthAdjust="spacingAndGlyphs" textLength="25" x="713.056" y="1133.16">1..*</text><text fill="#000000" font-family="sans-serif" font-size="16.25" lengthAdjust="spacingAndGlyphs" textLength="8.75" x="657.4213" y="1227.0242">1</text><!--MD5=[a8dca9f43ae0588234a584cb56b1934e]
link 图书管理员 to 登录窗口--><path d="M503.5413,105.075 C534.5888,138.15 568.125,185.6 568.125,236.25 C568.125,236.25 568.125,236.25 568.125,1058.125 C568.125,1113.5588 574.4725,1175.6538 580.7713,1223.6213 " fill="none" id="图书管理员-登录窗口" style="stroke: #A80036; stroke-width: 1.25;"/><text fill="#000000" font-family="sans-serif" font-size="16.25" lengthAdjust="spacingAndGlyphs" textLength="25" x="485.0282" y="131.5501">1..*</text><text fill="#000000" font-family="sans-serif" font-size="16.25" lengthAdjust="spacingAndGlyphs" textLength="8.75" x="570.1915" y="1210.4502">1</text><!--MD5=[b50c94c16e5e8a64516542777a9fb3c9]
link 图书管理员 to 维护书目信息--><path d="M394.0913,90 C366.3088,105.35 332.6975,124.4 303.125,142.5 C281.4125,155.7875 258.2463,170.8125 237.0875,184.8625 " fill="none" id="图书管理员-维护书目信息" style="stroke: #A80036; stroke-width: 1.25;"/><text fill="#000000" font-family="sans-serif" font-size="16.25" lengthAdjust="spacingAndGlyphs" textLength="8.75" x="375.4347" y="90.5225">1</text><text fill="#000000" font-family="sans-serif" font-size="16.25" lengthAdjust="spacingAndGlyphs" textLength="25" x="246.6811" y="174.9381">1..*</text><!--MD5=[016ca66167d7f3383a52d6107c3e066e]
link 图书管理员 to 维护读者信息--><path d="M509.71,79.2375 C540.5888,92.85 576.9925,113.5875 600.625,142.5 C645.2338,197.075 664.7925,277.5125 673.2188,330.86 " fill="none" id="图书管理员-维护读者信息" style="stroke: #A80036; stroke-width: 1.25;"/><text fill="#000000" font-family="sans-serif" font-size="16.25" lengthAdjust="spacingAndGlyphs" textLength="8.75" x="519.2359" y="77.9687">1</text><text fill="#000000" font-family="sans-serif" font-size="16.25" lengthAdjust="spacingAndGlyphs" textLength="25" x="645.362" y="317.6054">1..*</text><!--MD5=[1cf05a46df300a51d337e5804f6dcabe]
link 维护书目信息 to 图书品种--><path d="M143.3,294.01 C127.913,339.7875 105.8484,405.4287 88.5683,456.8375 " fill="none" id="维护书目信息-&gt;图书品种" style="stroke: #A80036; stroke-width: 1.25;"/><polygon fill="none" points="96.7793,459.8725,80.5197,480.7813,80.1913,454.2963,96.7793,459.8725" style="stroke: #A80036; stroke-width: 1.25;"/><!--MD5=[21dcf88b9d56c129280932b07b0dfe05]
link 维护读者信息 to 读者--><path d="M679.5,443.9788 C680.9862,537.4913 689.6062,732.2262 733.125,890 C737.9575,907.5175 744.4563,925.5075 751.6312,942.8775 " fill="none" id="维护读者信息-&gt;读者" style="stroke: #A80036; stroke-width: 1.25;"/><polygon fill="none" points="759.775,939.6613,761.7425,966.075,743.7325,946.6538,759.775,939.6613" style="stroke: #A80036; stroke-width: 1.25;"/><!--MD5=[a7c5c1b751c42a61fcb6a668dfcca394]
@startuml

class 馆藏目录
class 馆藏资源品种{
   String 资源名称
   String 国际出版号
   float 价格
   String  简介
   String 馆藏数量
   String 可借数量
   void set()
   Object get()
}
class 预定记录{
   String 预定日期
   String 预定用户
   String 预定数量
   创建预定对象()
   删除预定对象()
   修改预定对象()
}
class 资源项{
   String 资源流水号
   String 状态

}
class 图书品种{
   String 作者
   String 出版社
   String 出版日期
}
class 图书管理员{
   String 职工号
   String 姓名
}
class 逾期记录{
   int 逾期天数
}
class 借书记录{
  String 借书时间
  String 归还时间
}
class 读者{
  String 姓名
  String 身份证号
  String 借书卡号
  String 图书限额
  String 已借图书数
  String 碟片限额
  String 已借碟片数
}
class 罚款细则
class 登录窗口{
  String 窗口名称
  String 用户名
  String 密码
  创建登录对象()
  登录()
  取消()
}
class 查询图书记录{
  String 查询的用户名称
  String 查询时间
  String 图书编号
  获取图书对象()
  显示图书信息()
}
class 碟片品种{
  String 碟片品种
  String 碟片数
  String 制作公司
}
class 维护书目信息{
   String 维护人员职工号
   String 维护日期
   String 具体内容
}
class 维护读者信息{
   String 维护人员职工号
   String 维护日期
   String 具体内容
}

馆藏目录 "1" - "1..*"馆藏资源品种
馆藏资源品种 *- - 资源项
资源项"1" - - "0..1"借书记录
图书品种 - -|>馆藏资源品种
碟片品种 - -|>馆藏资源品种
图书管理员"1" -right- "*"借书记录 :登记
借书记录"1" - - "0..1"逾期记录
逾期记录"*" - "0..1"罚款细则 : 使用
借书 - 读者
读者"1" -up- "*"预定记录
预定记录 ..> 查询图书记录
预定记录"*" -left- "1"馆藏资源品种
读者"1" - "*"查询图书记录
读者"1..*" - - "1"登录窗口
图书管理员"1..*" - - "1"登录窗口
图书管理员"1" - - "1..*"维护书目信息
图书管理员"1" - - "1..*"维护读者信息
维护书目信息 - -|> 图书品种
维护读者信息 - -|> 读者

@enduml

PlantUML version 1.2019.11(Sun Sep 22 18:02:15 CST 2019)
(GPL source distribution)
Java Runtime: OpenJDK Runtime Environment
JVM: OpenJDK 64-Bit Server VM
Java Version: 11.0.5+10-b520.30
Operating System: Windows 10
Default Encoding: utf-8
Language: zh
Country: CN
--></g></svg>